<?xml version="1.0" standalone="no"?>
<!DOCTYPE svg PUBLIC "-//W3C//DTD SVG 20010904//EN"
 "http://www.w3.org/TR/2001/REC-SVG-20010904/DTD/svg10.dtd">
<svg version="1.0" xmlns="http://www.w3.org/2000/svg"
 width="512.000000pt" height="512.000000pt" viewBox="0 0 512.000000 512.000000"
 preserveAspectRatio="xMidYMid meet">
<metadata>
Created by potrace 1.14, written by Peter Selinger 2001-2017
</metadata>
<g transform="translate(0.000000,512.000000) scale(0.100000,-0.100000)"
fill="#000000" stroke="none">
<path d="M1555 5113 c-11 -3 -52 -16 -92 -29 -286 -94 -594 -449 -801 -923
-38 -88 -40 -117 -7 -151 l25 -26 -22 -67 c-18 -56 -26 -67 -44 -67 -67 0 -78
-25 -118 -265 -17 -104 -17 -358 0 -460 38 -222 163 -462 330 -630 45 -46 148
-136 172 -151 2 -1 -6 -21 -17 -45 -64 -138 -181 -486 -181 -539 0 -12 13 -35
30 -50 31 -29 31 -31 15 -127 -5 -31 -12 -43 -25 -43 -9 0 -27 -11 -40 -25
-21 -23 -22 -30 -17 -108 6 -83 22 -155 57 -253 l18 -50 -76 -13 c-253 -40
-404 -106 -439 -189 -23 -55 -9 -138 32 -178 18 -19 105 -60 167 -79 78 -24
89 -39 99 -135 7 -76 14 -95 52 -142 29 -36 120 -48 252 -33 70 8 87 0 120
-61 30 -56 94 -123 118 -125 6 0 21 -2 32 -5 41 -8 94 8 134 42 22 20 80 90
128 157 48 67 118 152 154 189 l66 68 49 -6 c27 -2 56 -7 64 -9 14 -4 61 -92
60 -111 -1 -5 -28 -29 -61 -54 -70 -52 -156 -142 -172 -179 -24 -60 0 -130 54
-158 32 -17 102 -16 168 1 30 8 60 13 67 12 7 -1 32 -21 54 -43 31 -33 51 -43
86 -49 42 -6 55 -2 127 34 88 45 86 45 179 -4 15 -8 50 -16 78 -17 47 -2 54 1
82 32 29 32 30 37 25 97 -7 72 -40 160 -98 257 -31 52 -39 76 -37 105 l3 37
159 0 159 0 4 -37 c3 -29 -4 -49 -30 -90 -88 -137 -126 -277 -97 -348 14 -33
60 -58 100 -55 16 1 62 17 104 34 l75 31 51 -30 c60 -36 130 -55 166 -46 14 4
47 27 74 52 l47 44 64 -15 c127 -30 198 -13 231 55 37 77 -21 164 -210 310
l-32 25 28 54 c17 33 36 55 48 57 104 16 96 17 150 -33 57 -55 102 -109 199
-243 38 -52 83 -107 99 -122 88 -81 213 -52 274 63 43 82 53 88 124 84 171
-11 207 -8 244 20 46 35 64 74 70 148 8 97 18 113 83 137 31 11 76 28 101 37
109 40 155 147 105 243 -37 71 -198 135 -430 171 -38 6 -71 12 -73 14 -1 1 9
31 22 67 39 103 57 216 52 331 -3 56 -7 116 -11 132 -24 127 -27 136 -51 152
-14 9 -34 16 -46 17 -18 1 -25 13 -40 69 l-19 68 25 24 c15 14 26 35 26 50 0
15 -27 95 -60 177 -34 83 -57 154 -53 158 4 4 22 17 38 29 62 46 189 179 246
258 65 89 135 223 168 320 49 145 73 405 51 548 -4 28 -11 74 -14 104 -4 29
-8 56 -10 60 -2 3 -7 24 -10 46 -14 87 -68 263 -122 395 -113 281 -261 520
-437 706 -191 202 -360 293 -557 300 -188 6 -324 -48 -480 -191 l-55 -50 -396
1 -395 1 -50 49 c-64 63 -78 73 -144 111 -95 54 -173 75 -290 78 -58 1 -114 0
-125 -2z"/>
</g>
</svg>
